<?xml version="1.0" encoding="utf-8"?>
<!-- Generator: Adobe Illustrator 25.4.1, SVG Export Plug-In . SVG Version: 6.00 Build 0)  -->
<svg version="1.1" id="圖層_1" xmlns="http://www.w3.org/2000/svg" xmlns:xlink="http://www.w3.org/1999/xlink" x="0px" y="0px"
	 viewBox="0 0 45.9 45.9" style="enable-background:new 0 0 45.9 45.9;" xml:space="preserve">
<style type="text/css">
	.st0{fill:#57B763;}
	.st1{fill:#FFFFFF;}
</style>
<g>
	<circle class="st0" cx="23" cy="23" r="23"/>
	<g>
		<g>
			<g>
				<path class="st1" d="M38.3,21.6c0-6.9-6.9-12.4-15.3-12.4c-8.4,0-15.3,5.6-15.3,12.4c0,6.1,5.5,11.3,12.8,12.3
					c0.5,0.1,1.2,0.3,1.3,0.8c0.2,0.4,0.1,1,0,1.4c0,0-0.2,1.1-0.2,1.3c-0.1,0.4-0.3,1.5,1.3,0.8c1.6-0.7,8.8-5.2,12-8.9h0
					C37.2,26.8,38.3,24.4,38.3,21.6z"/>
			</g>
			<g>
				<path class="st0" d="M33.2,25.6c0.2,0,0.3-0.1,0.3-0.3v-1.1c0-0.2-0.1-0.3-0.3-0.3h-2.9v-1.1h2.9c0.2,0,0.3-0.1,0.3-0.3v-1.1
					c0-0.2-0.1-0.3-0.3-0.3h-2.9V20h2.9c0.2,0,0.3-0.1,0.3-0.3v-1.1c0-0.2-0.1-0.3-0.3-0.3h-4.3h0c-0.2,0-0.3,0.1-0.3,0.3v0v0v6.7v0
					v0c0,0.2,0.1,0.3,0.3,0.3h0H33.2z"/>
				<path class="st0" d="M17.2,25.6c0.2,0,0.3-0.1,0.3-0.3v-1.1c0-0.2-0.1-0.3-0.3-0.3h-2.9v-5.3c0-0.2-0.1-0.3-0.3-0.3h-1.1
					c-0.2,0-0.3,0.1-0.3,0.3v6.7v0v0c0,0.2,0.1,0.3,0.3,0.3h0H17.2z"/>
				<path class="st0" d="M19.8,18.3h-1.1c-0.2,0-0.3,0.1-0.3,0.3v6.7c0,0.2,0.1,0.3,0.3,0.3h1.1c0.2,0,0.3-0.1,0.3-0.3v-6.7
					C20.1,18.4,20,18.3,19.8,18.3z"/>
				<path class="st0" d="M27.2,18.3h-1.1c-0.2,0-0.3,0.1-0.3,0.3v4l-3.1-4.1c0,0,0,0,0,0c0,0,0,0,0,0c0,0,0,0,0,0c0,0,0,0,0,0
					c0,0,0,0,0,0c0,0,0,0,0,0c0,0,0,0,0,0c0,0,0,0,0,0c0,0,0,0,0,0c0,0,0,0,0,0c0,0,0,0,0,0c0,0,0,0,0,0c0,0,0,0,0,0c0,0,0,0,0,0
					c0,0,0,0,0,0c0,0,0,0,0,0c0,0,0,0,0,0c0,0,0,0,0,0c0,0,0,0,0,0h-1.1c-0.2,0-0.3,0.1-0.3,0.3v6.7c0,0.2,0.1,0.3,0.3,0.3h1.1
					c0.2,0,0.3-0.1,0.3-0.3v-4l3.1,4.1c0,0,0,0.1,0.1,0.1c0,0,0,0,0,0c0,0,0,0,0,0c0,0,0,0,0,0c0,0,0,0,0,0c0,0,0,0,0,0c0,0,0,0,0,0
					c0,0,0,0,0,0c0,0,0,0,0,0c0,0,0.1,0,0.1,0h1.1c0.2,0,0.3-0.1,0.3-0.3v-6.7C27.5,18.4,27.4,18.3,27.2,18.3z"/>
			</g>
		</g>
	</g>
</g>
</svg>
