<?xml version="1.0" encoding="utf-8"?>
<!-- Generator: Adobe Illustrator 27.4.0, SVG Export Plug-In . SVG Version: 6.00 Build 0)  -->
<svg version="1.1" id="圖層_1" xmlns="http://www.w3.org/2000/svg" xmlns:xlink="http://www.w3.org/1999/xlink" x="0px" y="0px"
	 viewBox="0 0 30 30" style="enable-background:new 0 0 30 30;" xml:space="preserve">
<style type="text/css">
	.st0{fill:url(#SVGID_1_);}
</style>
<g>
	<linearGradient id="SVGID_1_" gradientUnits="userSpaceOnUse" x1="1.6272" y1="6.4954" x2="27.5308" y2="30.6509">
		<stop  offset="0" style="stop-color:#00B4FF"/>
		<stop  offset="6.393319e-02" style="stop-color:#00A6F1"/>
		<stop  offset="0.2498" style="stop-color:#0084CD"/>
		<stop  offset="0.4372" style="stop-color:#0069B1"/>
		<stop  offset="0.6247" style="stop-color:#00559D"/>
		<stop  offset="0.8122" style="stop-color:#004A91"/>
		<stop  offset="1" style="stop-color:#00468D"/>
	</linearGradient>
	<path class="st0" d="M28.3,9.8h-0.8c0-0.2-0.1-0.3-0.2-0.5c0,0-0.5-0.3-1.4-0.5V6.1c0-0.2-0.2-0.4-0.4-0.4c-3.6,0-6.3,1.1-7.9,2
		c-0.9,0.5-1.6,1-2.1,1.4c-0.1-0.8-0.3-1.9-0.7-3.2c-1.1-2.8-3.2-4.6-6-5.2c-0.3,0-0.5,0.1-0.5,0.4V3C7.4,2.7,6.6,2.5,5.8,2.3
		c-0.3,0-0.5,0.1-0.5,0.4v5.8C3.8,8.9,2.8,9.3,2.7,9.3C2.6,9.5,2.5,9.6,2.5,9.8H1.7c-0.5,0-1,0.4-1,1v12.8c0,0.5,0.8,0.5,0.8,0V10.8
		c0-0.1,0.1-0.1,0.1-0.1h0.8v16.5c0,0.2,0.2,0.4,0.4,0.4h24.2c0.2,0,0.4-0.2,0.4-0.4V10.7h0.8c0.1,0,0.1,0.1,0.1,0.1v17.5
		c0,0.1-0.1,0.1-0.1,0.1H16.3c-0.7-0.7-1.8-0.7-2.5,0H1.7c-0.1,0-0.1-0.1-0.1-0.1v-2.2c0-0.5-0.8-0.5-0.8,0v2.2c0,0.5,0.4,1,1,1
		h12.3c0.1,0,0.3-0.1,0.3-0.2c0.4-0.5,1.1-0.5,1.5,0c0.1,0.1,0.2,0.2,0.3,0.2h12.3c0.5,0,1-0.4,1-1V10.8
		C29.3,10.3,28.9,9.8,28.3,9.8z M25,6.5v4.3c0,0.2,0.2,0.4,0.4,0.4s0.4-0.2,0.4-0.4V9.7c0.4,0.1,0.7,0.2,0.8,0.3v2.9v12.4
		c-3.1-1-5.7-0.9-7.5-0.5c1.6-0.7,3.7-1.3,6.3-1.3c0.2,0,0.4-0.2,0.4-0.4v-9.7c0-0.2-0.2-0.4-0.4-0.4S25,13.1,25,13.4v9.3
		c-3.4,0.1-5.9,1.1-7.5,2c-0.9,0.5-1.6,1-2,1.4V10.2C16.1,9.6,19.4,6.6,25,6.5L25,6.5z M8.9,1.6c2.3,0.6,4,2.2,4.9,4.6
		c0.8,2,0.7,3.8,0.7,3.8c0,0,0,0,0,0v12.7c-1.1-2.6-3-4.3-5.6-5V1.6z M8.1,3.9v14.2c0,0.2,0.1,0.4,0.3,0.4c2.6,0.5,4.4,2.1,5.4,4.7
		c0.3,0.7,0.4,1.4,0.5,2c-0.3-0.5-0.7-1-1.2-1.6c-1.4-1.5-3.7-3.4-7-4.2V8.8c0,0,0,0,0,0V3.2C6.8,3.4,7.5,3.6,8.1,3.9L8.1,3.9z
		 M3.3,10c0.3-0.1,1-0.4,2-0.6v10.3c0,0.2,0.1,0.4,0.3,0.4c3.3,0.7,5.6,2.6,6.9,4c0.5,0.6,1,1.2,1.3,1.6c-0.5-0.3-1.1-0.5-1.9-0.7
		c-1.9-0.5-4.8-0.9-8.6,0.3V12.9L3.3,10L3.3,10z M3.3,26.2c3.6-1.2,6.5-0.9,8.3-0.3c1,0.3,1.7,0.6,2.2,0.9H3.3V26.2z M16.1,26.7
		c0.5-0.3,1.3-0.6,2.2-0.9c1.8-0.5,4.7-0.9,8.3,0.3v0.6H16.1z"/>
</g>
</svg>
