<?xml version="1.0" encoding="utf-8"?>
<!-- Generator: Adobe Illustrator 27.4.0, SVG Export Plug-In . SVG Version: 6.00 Build 0)  -->
<svg version="1.1" id="圖層_1" xmlns="http://www.w3.org/2000/svg" xmlns:xlink="http://www.w3.org/1999/xlink" x="0px" y="0px"
	 viewBox="0 0 30 30" style="enable-background:new 0 0 30 30;" xml:space="preserve">
<style type="text/css">
	.st0{fill:url(#SVGID_1_);}
	.st1{fill:url(#SVGID_00000073686338297468692730000001426004695430148233_);}
	.st2{fill:url(#SVGID_00000032644652344820628810000005070028314231824570_);}
	.st3{fill:url(#SVGID_00000182513804911494396200000017574763240799602330_);}
	.st4{fill:url(#SVGID_00000078013970310316611360000005132740526223069099_);}
	.st5{fill:url(#SVGID_00000022560964315530405890000012375291009480311696_);}
	.st6{fill:url(#SVGID_00000085950560724555634500000010888170854769667989_);}
</style>
<g>
	<linearGradient id="SVGID_1_" gradientUnits="userSpaceOnUse" x1="11.2331" y1="2.5084" x2="16.3532" y2="7.283">
		<stop  offset="0" style="stop-color:#00B4FF"/>
		<stop  offset="6.393319e-02" style="stop-color:#00A6F1"/>
		<stop  offset="0.2498" style="stop-color:#0084CD"/>
		<stop  offset="0.4372" style="stop-color:#0069B1"/>
		<stop  offset="0.6247" style="stop-color:#00559D"/>
		<stop  offset="0.8122" style="stop-color:#004A91"/>
		<stop  offset="1" style="stop-color:#00468D"/>
	</linearGradient>
	<path class="st0" d="M18.8,4.5c0-0.3-0.2-0.6-0.6-0.6h-8.1c-0.3,0-0.6,0.2-0.6,0.6v1.6c0,0.3,0.2,0.6,0.6,0.6s0.6-0.2,0.6-0.6V5
		h7.5C18.5,5,18.8,4.8,18.8,4.5z"/>
	
		<linearGradient id="SVGID_00000177446745905041937100000005456919903435025323_" gradientUnits="userSpaceOnUse" x1="6.8314" y1="15.9516" x2="18.4522" y2="26.7882">
		<stop  offset="0" style="stop-color:#00B4FF"/>
		<stop  offset="6.393319e-02" style="stop-color:#00A6F1"/>
		<stop  offset="0.2498" style="stop-color:#0084CD"/>
		<stop  offset="0.4372" style="stop-color:#0069B1"/>
		<stop  offset="0.6247" style="stop-color:#00559D"/>
		<stop  offset="0.8122" style="stop-color:#004A91"/>
		<stop  offset="1" style="stop-color:#00468D"/>
	</linearGradient>
	<path style="fill:url(#SVGID_00000177446745905041937100000005456919903435025323_);" d="M18.4,16.8H6.9c-1.1,0-2.1,0.9-2.1,2.1v5
		c0,1.1,0.9,2.1,2.1,2.1h11.4c1.1,0,2.1-0.9,2.1-2.1v-5C20.4,17.7,19.5,16.8,18.4,16.8z M18.4,24.8H6.9c-0.5,0-1-0.4-1-1v-5
		c0-0.5,0.4-1,1-1h11.4c0.5,0,1,0.4,1,1l0,5C19.3,24.4,18.9,24.8,18.4,24.8z"/>
	
		<linearGradient id="SVGID_00000021808031397048899770000004805449515082757021_" gradientUnits="userSpaceOnUse" x1="17.7397" y1="9.0023" x2="21.3653" y2="12.3832">
		<stop  offset="0" style="stop-color:#00B4FF"/>
		<stop  offset="6.393319e-02" style="stop-color:#00A6F1"/>
		<stop  offset="0.2498" style="stop-color:#0084CD"/>
		<stop  offset="0.4372" style="stop-color:#0069B1"/>
		<stop  offset="0.6247" style="stop-color:#00559D"/>
		<stop  offset="0.8122" style="stop-color:#004A91"/>
		<stop  offset="1" style="stop-color:#00468D"/>
	</linearGradient>
	<path style="fill:url(#SVGID_00000021808031397048899770000004805449515082757021_);" d="M22.2,10.1h-5.3c-0.3,0-0.6,0.2-0.6,0.6
		s0.2,0.6,0.6,0.6h5.3c0.3,0,0.6-0.2,0.6-0.6S22.5,10.1,22.2,10.1z"/>
	
		<linearGradient id="SVGID_00000002343638688941177100000015369350220452284089_" gradientUnits="userSpaceOnUse" x1="13.959" y1="10.3135" x2="14.7722" y2="11.0719">
		<stop  offset="0" style="stop-color:#00B4FF"/>
		<stop  offset="6.393319e-02" style="stop-color:#00A6F1"/>
		<stop  offset="0.2498" style="stop-color:#0084CD"/>
		<stop  offset="0.4372" style="stop-color:#0069B1"/>
		<stop  offset="0.6247" style="stop-color:#00559D"/>
		<stop  offset="0.8122" style="stop-color:#004A91"/>
		<stop  offset="1" style="stop-color:#00468D"/>
	</linearGradient>
	<path style="fill:url(#SVGID_00000002343638688941177100000015369350220452284089_);" d="M14.4,10.1c-0.1,0-0.3,0.1-0.4,0.2
		s-0.2,0.2-0.2,0.4c0,0.1,0.1,0.3,0.2,0.4c0.1,0.1,0.2,0.2,0.4,0.2c0.1,0,0.3-0.1,0.4-0.2c0.1-0.1,0.2-0.2,0.2-0.4s-0.1-0.3-0.2-0.4
		C14.7,10.2,14.5,10.1,14.4,10.1z"/>
	
		<linearGradient id="SVGID_00000094604428168385738010000007210769069502567575_" gradientUnits="userSpaceOnUse" x1="11.8717" y1="19.7702" x2="15.3026" y2="22.9695">
		<stop  offset="0" style="stop-color:#00B4FF"/>
		<stop  offset="6.393319e-02" style="stop-color:#00A6F1"/>
		<stop  offset="0.2498" style="stop-color:#0084CD"/>
		<stop  offset="0.4372" style="stop-color:#0069B1"/>
		<stop  offset="0.6247" style="stop-color:#00559D"/>
		<stop  offset="0.8122" style="stop-color:#004A91"/>
		<stop  offset="1" style="stop-color:#00468D"/>
	</linearGradient>
	<path style="fill:url(#SVGID_00000094604428168385738010000007210769069502567575_);" d="M16,20.8h-4.9c-0.3,0-0.6,0.2-0.6,0.6
		c0,0.3,0.2,0.6,0.6,0.6H16c0.3,0,0.6-0.2,0.6-0.6C16.6,21.1,16.3,20.8,16,20.8z"/>
	
		<linearGradient id="SVGID_00000160174383354198521290000015615668856156412593_" gradientUnits="userSpaceOnUse" x1="8.4274" y1="20.9907" x2="9.2407" y2="21.749">
		<stop  offset="0" style="stop-color:#00B4FF"/>
		<stop  offset="6.393319e-02" style="stop-color:#00A6F1"/>
		<stop  offset="0.2498" style="stop-color:#0084CD"/>
		<stop  offset="0.4372" style="stop-color:#0069B1"/>
		<stop  offset="0.6247" style="stop-color:#00559D"/>
		<stop  offset="0.8122" style="stop-color:#004A91"/>
		<stop  offset="1" style="stop-color:#00468D"/>
	</linearGradient>
	<path style="fill:url(#SVGID_00000160174383354198521290000015615668856156412593_);" d="M8.8,20.8c-0.1,0-0.3,0.1-0.4,0.2
		c-0.1,0.1-0.2,0.2-0.2,0.4c0,0.1,0.1,0.3,0.2,0.4c0.1,0.1,0.2,0.2,0.4,0.2c0.1,0,0.3-0.1,0.4-0.2c0.1-0.1,0.2-0.2,0.2-0.4
		c0-0.1-0.1-0.3-0.2-0.4C9.1,20.9,9,20.8,8.8,20.8z"/>
	
		<linearGradient id="SVGID_00000153672642345101770630000002597881526389583036_" gradientUnits="userSpaceOnUse" x1="2.1516" y1="6.13" x2="27.3736" y2="29.6499">
		<stop  offset="0" style="stop-color:#00B4FF"/>
		<stop  offset="6.393319e-02" style="stop-color:#00A6F1"/>
		<stop  offset="0.2498" style="stop-color:#0084CD"/>
		<stop  offset="0.4372" style="stop-color:#0069B1"/>
		<stop  offset="0.6247" style="stop-color:#00559D"/>
		<stop  offset="0.8122" style="stop-color:#004A91"/>
		<stop  offset="1" style="stop-color:#00468D"/>
	</linearGradient>
	<path style="fill:url(#SVGID_00000153672642345101770630000002597881526389583036_);" d="M26.5,9.7h-0.2V6.4c0,0,0,0,0,0
		c0-0.1-0.1-0.3-0.2-0.4l-4.9-4.9C21.2,1,21,0.9,20.9,0.9c0,0,0,0,0,0H7.7c-0.9,0-1.7,0.7-1.7,1.7v4.9H1.4C1.1,7.5,0.9,7.7,0.9,8
		v18.6c0,1.5,1.2,2.8,2.8,2.8h22.6c0,0,0,0,0,0c0,0,0.1,0,0.1,0c1.7,0,3-1.3,3-3V12.5C29.3,11,28.1,9.7,26.5,9.7z M21.4,2.8l3,3h-2
		c-0.5,0-1-0.4-1-1V2.8z M3.6,28.3c-0.9,0-1.7-0.7-1.7-1.7v-18h6.9c0.7,0,1.3,0.4,1.5,1l1.9,4.5c0.1,0.2,0.3,0.3,0.5,0.3h8.8
		c0.9,0,1.7,0.7,1.7,1.7v10.2c0,0.7,0.3,1.4,0.7,1.9L3.6,28.3z M21.6,13.4h-8.5l-1.8-4.2C11,8.1,10,7.5,8.8,7.5H7.2V2.6
		C7.2,2.3,7.4,2,7.7,2h12.6v2.8c0,0.9,0.5,1.6,1.3,1.9v0.7h-9c-0.3,0-0.6,0.2-0.6,0.6c0,0.3,0.2,0.6,0.6,0.6h9.5
		c0.3,0,0.6-0.2,0.6-0.6V6.9h2.5v17.2c0,0.3-0.2,0.6-0.6,0.6h-0.2v-8.6C24.4,14.6,23.2,13.4,21.6,13.4z M28.2,26.4
		c0,1-0.8,1.9-1.9,1.9c-1,0-1.9-0.8-1.9-1.9v-0.6h0.2c0.9,0,1.7-0.7,1.7-1.7V10.9h0.2c0.9,0,1.7,0.7,1.7,1.7V26.4z"/>
</g>
</svg>
