<?xml version="1.0" encoding="utf-8"?>
<!-- Generator: Adobe Illustrator 27.4.0, SVG Export Plug-In . SVG Version: 6.00 Build 0)  -->
<svg version="1.1" id="圖層_1" xmlns="http://www.w3.org/2000/svg" xmlns:xlink="http://www.w3.org/1999/xlink" x="0px" y="0px"
	 viewBox="0 0 30 30" style="enable-background:new 0 0 30 30;" xml:space="preserve">
<style type="text/css">
	.st0{fill:url(#SVGID_1_);}
	.st1{fill:url(#SVGID_00000164497148663935996230000005021666932215827134_);}
</style>
<g>
	<g>
		<linearGradient id="SVGID_1_" gradientUnits="userSpaceOnUse" x1="4.4523" y1="3.2401" x2="26.3267" y2="23.6383">
			<stop  offset="0" style="stop-color:#00B4FF"/>
			<stop  offset="6.393319e-02" style="stop-color:#00A6F1"/>
			<stop  offset="0.2498" style="stop-color:#0084CD"/>
			<stop  offset="0.4372" style="stop-color:#0069B1"/>
			<stop  offset="0.6247" style="stop-color:#00559D"/>
			<stop  offset="0.8122" style="stop-color:#004A91"/>
			<stop  offset="1" style="stop-color:#00468D"/>
		</linearGradient>
		<path class="st0" d="M26.2,11.9c-0.1-0.2-0.4-0.3-0.6-0.2c-0.2,0.1-0.3,0.4-0.2,0.6c0.8,1.6,1.3,3.4,1.3,5.2c0,3-1.2,5.7-3,7.7
			l0.1-2.7c0-0.5-0.2-1.1-0.6-1.5l-0.5-0.5c-0.3-0.3-0.4-0.8-0.2-1.2l1-2.5c0.1-0.4,0.2-0.7,0.1-1.1l-0.5-2.5
			c-0.1-0.5-0.3-0.9-0.7-1.2c-0.4-0.3-0.8-0.5-1.3-0.5c-0.4,0-0.9-0.3-1-0.7l-1-2.1l2.2-0.8c1.2,0.7,2.2,1.7,3.1,2.8
			c0.1,0.1,0.2,0.2,0.3,0.2c0.1,0,0.2,0,0.3-0.1c0.2-0.1,0.2-0.4,0.1-0.6c-0.9-1.2-2-2.2-3.3-3c-0.1-0.7-0.3-2.6-1.1-4h2.8
			c0.2,0,0.4-0.2,0.4-0.4V0.9c0-0.2-0.2-0.4-0.4-0.4H7.3C7,0.4,6.8,0.6,6.8,0.9v1.9c0,0.2,0.2,0.4,0.4,0.4H10c-0.8,1.4-1,3.3-1.1,4
			c-1.7,1.1-3.1,2.5-4.1,4.2c-1.1,1.8-1.6,4-1.6,6.1c0,3.3,1.3,6.3,3.6,8.6c2.3,2.3,5.4,3.6,8.6,3.6s6.3-1.3,8.6-3.6
			s3.6-5.4,3.6-8.6C27.6,15.6,27.1,13.6,26.2,11.9L26.2,11.9z M15.4,9.2L9.8,7.1c0-0.3,0.1-0.8,0.2-1.4l5.2,2c0,0,0.1,0,0.2,0
			c0.1,0,0.1,0,0.2,0l5.2-2c0.1,0.6,0.2,1.1,0.2,1.4L15.4,9.2z M12.1,3.1c0.2,0,0.4-0.2,0.4-0.4c0-0.2-0.2-0.4-0.4-0.4H7.7v-1h15.4
			v1h-8.9c-0.2,0-0.4,0.2-0.4,0.4c0,0.2,0.2,0.4,0.4,0.4h5.6c0.4,0.5,0.6,1.1,0.8,1.7l-5.1,1.9l-5.1-1.9c0.2-0.6,0.5-1.3,0.8-1.7
			H12.1z M6.1,24.1l1.8-1.2c0.6-0.4,0.9-1,1-1.7l0.2-1.4c0.1-0.6,0-1.1-0.4-1.6l-0.6-1c-0.3-0.5-0.3-1.2,0-1.7
			c0.3-0.4,0.8-0.6,1.3-0.6c0.3,0,0.5,0.1,0.7,0.2l0.3,0.2c0.6,0.3,1.3,0.4,1.9,0.2l0.8-0.3c0.2-0.1,0.3-0.3,0.3-0.5
			c-0.1-0.2-0.3-0.3-0.5-0.3l-0.8,0.3c-0.4,0.1-0.8,0.1-1.2-0.1l-0.3-0.2C10.3,14.1,9.9,14,9.5,14c-0.8,0-1.5,0.4-2,1
			c-0.6,0.8-0.6,1.9-0.1,2.7l0.6,1c0.2,0.3,0.3,0.7,0.2,1l-0.2,1.4c-0.1,0.4-0.3,0.8-0.7,1.1l-1.8,1.2c-1-1.7-1.6-3.7-1.6-5.9
			c0-2,0.5-4,1.5-5.7c0.9-1.6,2.2-3,3.8-3.9l5.9,2.2c0,0,0.1,0,0.2,0c0.1,0,0.1,0,0.2,0l0.6-0.2v2.3c0,0.7-0.4,1.3-1.1,1.5l-0.1,0
			c-0.2,0.1-0.3,0.3-0.3,0.5c0.1,0.2,0.2,0.3,0.4,0.3c0,0,0.1,0,0.1,0l0.1,0c1-0.3,1.7-1.2,1.7-2.3V9.5L18.3,9l1,2.1
			c0.3,0.7,1,1.2,1.8,1.2c0.3,0,0.5,0.1,0.7,0.3c0.2,0.2,0.3,0.4,0.4,0.7l0.5,2.5c0,0.2,0,0.4-0.1,0.6l-1,2.5
			c-0.3,0.7-0.1,1.6,0.4,2.1l0.5,0.5c0.2,0.2,0.3,0.5,0.3,0.8l-0.1,3.6c-2,1.7-4.6,2.8-7.4,2.8C11.6,28.8,8.2,26.9,6.1,24.1
			L6.1,24.1z"/>
		
			<linearGradient id="SVGID_00000000945588080104337660000002726493742954891442_" gradientUnits="userSpaceOnUse" x1="12.7383" y1="19.6166" x2="16.4737" y2="23.0999">
			<stop  offset="0" style="stop-color:#00B4FF"/>
			<stop  offset="6.393319e-02" style="stop-color:#00A6F1"/>
			<stop  offset="0.2498" style="stop-color:#0084CD"/>
			<stop  offset="0.4372" style="stop-color:#0069B1"/>
			<stop  offset="0.6247" style="stop-color:#00559D"/>
			<stop  offset="0.8122" style="stop-color:#004A91"/>
			<stop  offset="1" style="stop-color:#00468D"/>
		</linearGradient>
		<path style="fill:url(#SVGID_00000000945588080104337660000002726493742954891442_);" d="M16.3,17.6l-0.7,0.1
			c-0.2,0-0.4,0.1-0.6,0.2l-0.5,0.3c-0.4,0.3-0.7,0.7-0.8,1.2l-0.1,0.7c-0.1,0.4-0.4,0.7-0.7,0.7L11.9,21c-0.8,0.2-1.4,0.9-1.4,1.8
			l0,0.3c0,0.5,0.2,0.9,0.6,1.3c0.3,0.3,0.8,0.5,1.2,0.5c0,0,0.1,0,0.1,0l2-0.1c0.6,0,1.1-0.4,1.4-0.9l1-1.9c0-0.1,0.1-0.1,0.1-0.1
			l1.1-1.3c0.5-0.6,0.6-1.4,0.2-2.1C17.8,17.8,17,17.5,16.3,17.6L16.3,17.6z M17.3,19.9l-1.1,1.3c-0.1,0.1-0.1,0.2-0.2,0.3l-1,1.9
			c-0.2,0.3-0.4,0.5-0.7,0.5l-2,0.1c-0.3,0-0.5-0.1-0.7-0.2c-0.2-0.2-0.3-0.4-0.3-0.7l0-0.3c0-0.4,0.3-0.8,0.7-0.9l0.9-0.2
			c0.7-0.1,1.3-0.7,1.4-1.4l0.1-0.7c0-0.3,0.2-0.5,0.4-0.6l0.5-0.3c0.1-0.1,0.2-0.1,0.3-0.1l0.7-0.1c0.4-0.1,0.8,0.1,1,0.4
			C17.6,19.2,17.6,19.6,17.3,19.9z"/>
	</g>
</g>
</svg>
