<?xml version="1.0" encoding="utf-8"?>
<!-- Generator: Adobe Illustrator 27.4.0, SVG Export Plug-In . SVG Version: 6.00 Build 0)  -->
<svg version="1.1" id="圖層_1" xmlns="http://www.w3.org/2000/svg" xmlns:xlink="http://www.w3.org/1999/xlink" x="0px" y="0px"
	 viewBox="0 0 30 30" style="enable-background:new 0 0 30 30;" xml:space="preserve">
<style type="text/css">
	.st0{fill:url(#SVGID_1_);}
</style>
<g>
	
		<linearGradient id="SVGID_1_" gradientUnits="userSpaceOnUse" x1="1.9653" y1="27.1514" x2="27.4301" y2="3.4051" gradientTransform="matrix(1 0 0 -1 0 32)">
		<stop  offset="0" style="stop-color:#00B4FF"/>
		<stop  offset="6.393319e-02" style="stop-color:#00A6F1"/>
		<stop  offset="0.2498" style="stop-color:#0084CD"/>
		<stop  offset="0.4372" style="stop-color:#0069B1"/>
		<stop  offset="0.6247" style="stop-color:#00559D"/>
		<stop  offset="0.8122" style="stop-color:#004A91"/>
		<stop  offset="1" style="stop-color:#00468D"/>
	</linearGradient>
	<path class="st0" d="M29.1,14l-0.9-2.3c0.3-0.3,0.4-0.7,0.4-1.1c0-0.8-0.5-1.5-1.3-1.6c0-0.1,0-2.9,0-3c0-0.4-0.2-0.7-0.6-0.8
		L15,1.1c-0.5-0.2-1-0.2-1.5,0l-2.9,1c-0.2,0.1-0.3,0.3-0.3,0.5c0.1,0.2,0.3,0.3,0.5,0.3l2.9-1c0.3-0.1,0.6-0.1,1,0L26.5,6l0,0l0,0
		l-4,1.4l0,0c0-0.5-0.4-0.9-0.9-1c-4.9-0.9-9.8-0.9-14.6,0c-0.5,0.1-0.9,0.5-0.9,1v0.1L2,6.1l0,0l0,0l7-2.5c0.2-0.1,0.3-0.3,0.3-0.5
		C9.2,2.8,8.9,2.7,8.7,2.8L1.8,5.2C1.4,5.3,1.2,5.7,1.2,6s0.2,0.7,0.6,0.8l4.3,1.5v4.1c-2.2,0.2-3.9,2.1-3.9,4.3
		c0,1.5,0.8,2.8,1.9,3.6c-1.9,0.4-3.4,2.2-3.4,4.2C0.7,27,2.6,29,5,29h21.5c0.7,0,1.3-0.6,1.3-1.3c0-0.7-0.6-1.3-1.3-1.3
		c-0.4-1.1-0.4-2.3,0-3.5c0.7,0,1.3-0.6,1.3-1.3c0-0.7-0.6-1.3-1.3-1.3h-0.3c0.1-0.1,0.1-0.3,0.1-0.5c0-0.7-0.6-1.3-1.3-1.3l0,0
		c-0.4-1-0.4-2.2-0.1-3.2c0.2,0.2,0.5,0.4,0.9,0.4H28c0.4,0,0.8-0.2,1-0.5C29.2,14.8,29.3,14.4,29.1,14L29.1,14z M27.8,10.7
		c0,0.5-0.4,0.9-0.8,0.9s-0.8-0.4-0.8-0.9s0.4-0.9,0.8-0.9S27.8,10.2,27.8,10.7z M26.5,7v2c-0.7,0.2-1.3,0.9-1.3,1.6
		c0,0.4,0.2,0.8,0.4,1.1l-0.3,0.7h-2.9v-4L26.5,7z M7.1,7.1c4.8-0.9,9.6-0.9,14.3,0c0.1,0,0.2,0.1,0.2,0.2v2.8H19
		c-0.2,0-0.4,0.2-0.4,0.4s0.2,0.4,0.4,0.4h2.6v1.4H6.9V11h10.2c0.2,0,0.4-0.2,0.4-0.4s-0.2-0.4-0.4-0.4H6.9V7.4
		C6.9,7.3,7,7.2,7.1,7.1L7.1,7.1z M27,21.6c0,0.3-0.2,0.5-0.5,0.5H5c-1.4,0-2.6,1.2-2.6,2.6s1.2,2.6,2.6,2.6h16.5
		c0.2,0,0.4-0.2,0.4-0.4c0-0.2-0.2-0.4-0.4-0.4H5c-1,0-1.7-0.8-1.7-1.7c0-1,0.8-1.7,1.7-1.7h13.2v2.3c0,0.1,0.1,0.3,0.2,0.3
		c0.1,0.1,0.3,0.1,0.4,0l1.1-0.4l1.1,0.4c0,0,0.1,0,0.2,0s0.2,0,0.2-0.1c0.1-0.1,0.2-0.2,0.2-0.3V23h4c-0.4,1.1-0.4,2.3,0,3.5h-2.2
		c-0.2,0-0.4,0.2-0.4,0.4c0,0.2,0.2,0.4,0.4,0.4h3c0.3,0,0.5,0.2,0.5,0.5s-0.2,0.5-0.5,0.5H5c-1.9,0-3.5-1.6-3.5-3.5
		s1.6-3.5,3.5-3.5h21.5C26.8,21.1,27,21.4,27,21.6L27,21.6z M19,22.9h1.7v1.7L20,24.3c-0.1,0-0.2,0-0.3,0L19,24.6V22.9z M11.9,19.4
		H25c0.3,0,0.5,0.2,0.5,0.5s-0.2,0.5-0.5,0.5H6.5c-1.9,0-3.5-1.6-3.5-3.5s1.6-3.5,3.5-3.5H25c-0.1,0.3-0.3,0.7-0.4,0.9H6.5
		c-1.4,0-2.6,1.2-2.6,2.6s1.2,2.6,2.6,2.6h3.4c0.2,0,0.4-0.2,0.4-0.4c0-0.2-0.2-0.4-0.4-0.4H6.5c-1,0-1.7-0.8-1.7-1.7
		s0.8-1.7,1.7-1.7H8v2.3c0,0.1,0.1,0.3,0.2,0.3c0.1,0.1,0.3,0.1,0.4,0l1.1-0.4l1.1,0.4c0,0,0.1,0,0.2,0c0.1,0,0.2,0,0.2-0.1
		c0.1-0.1,0.2-0.2,0.2-0.3v-2.3h12.7c-0.4,1.1-0.4,2.3,0,3.5H11.9c-0.2,0-0.4,0.2-0.4,0.4C11.5,19.2,11.7,19.4,11.9,19.4L11.9,19.4z
		 M8.9,15.1h1.7v1.7l-0.7-0.3c-0.1,0-0.2,0-0.3,0l-0.7,0.3V15.1z M28.3,14.7c0,0-0.1,0.2-0.3,0.2h-2.2c-0.2,0-0.3-0.1-0.3-0.2
		c-0.1-0.1-0.1-0.2,0-0.3l0.9-2.1c0.2,0.1,0.4,0.1,0.6,0.1s0.4,0,0.6-0.1l0.9,2.1C28.4,14.5,28.4,14.6,28.3,14.7L28.3,14.7z"/>
</g>
</svg>
