<?xml version="1.0" encoding="utf-8"?>
<!-- Generator: Adobe Illustrator 27.4.0, SVG Export Plug-In . SVG Version: 6.00 Build 0)  -->
<svg version="1.1" xmlns="http://www.w3.org/2000/svg" xmlns:xlink="http://www.w3.org/1999/xlink" x="0px" y="0px"
	 viewBox="0 0 27.4 30" style="enable-background:new 0 0 27.4 30;" xml:space="preserve">
<style type="text/css">
	.st0{font-family:'Arial-BoldMT';}
	.st1{font-size:18.3995px;}
	.st2{fill:#FF0D00;}
</style>
<g id="圖層_1">
	<text transform="matrix(1 0 0 1 5.5605 21.8252)" class="st0 st1">IP</text>
</g>
<g id="圖層_2">
	<path class="st2" d="M13.7,28.5c-7.4,0-13.5-6-13.5-13.5c0-7.4,6-13.5,13.5-13.5s13.5,6,13.5,13.5C27.2,22.4,21.1,28.5,13.7,28.5z
		 M13.7,4c-6,0-11,4.9-11,11s4.9,11,11,11c6,0,11-4.9,11-11S19.7,4,13.7,4z"/>
	<rect x="1.8" y="13.4" transform="matrix(0.7071 -0.7071 0.7071 0.7071 -6.3498 13.9794)" class="st2" width="23.8" height="2.5"/>
</g>
</svg>
