<?xml version="1.0" encoding="utf-8"?>
<!-- Generator: Adobe Illustrator 27.4.0, SVG Export Plug-In . SVG Version: 6.00 Build 0)  -->
<svg version="1.1" xmlns="http://www.w3.org/2000/svg" xmlns:xlink="http://www.w3.org/1999/xlink" x="0px" y="0px"
	 viewBox="0 0 27.4 30" style="enable-background:new 0 0 27.4 30;" xml:space="preserve">
<style type="text/css">
	.st0{fill:#FFFFFF;}
	.st1{fill:#DB0505;}
	.st2{fill-rule:evenodd;clip-rule:evenodd;fill:#DB0505;}
</style>
<g id="圖層_2">
	<polygon class="st0" points="3.2,0.5 3.4,29.4 24.1,29.4 24.1,4.8 19.3,0.4 	"/>
</g>
<g id="圖層_1">
	<g>
		<path class="st1" d="M2.9,13.5c0,0.2,0.2,0.4,0.4,0.4s0.4-0.2,0.4-0.4V0.9h15.7L23.6,5v8.5c0,0.2,0.2,0.4,0.4,0.4
			c0.2,0,0.4-0.2,0.4-0.4V4.8l0,0c0-0.1,0-0.2-0.1-0.3l0,0L20,0.1c-0.1,0-0.2-0.1-0.3-0.1H3.4C3.1,0,2.9,0.2,2.9,0.4V13.5L2.9,13.5z
			 M24.5,25.4c0-0.2-0.2-0.4-0.4-0.4c-0.2,0-0.4,0.2-0.4,0.4v3.7H3.8v-3.7c0-0.2-0.2-0.4-0.4-0.4S3,25.2,3,25.4v4.2
			C3,29.8,3.2,30,3.4,30H24c0.2,0,0.4-0.2,0.4-0.4v-4.2H24.5z"/>
		<path class="st1" d="M20.1,0.4c0-0.2-0.2-0.4-0.4-0.4c-0.2,0-0.4,0.2-0.4,0.4v2.2c0,0.7,0.3,1.4,0.8,1.9s1.1,0.8,1.9,0.8h2
			c0.2,0,0.4-0.2,0.4-0.4c0-0.2-0.2-0.4-0.4-0.4h-2.2c-0.5,0-0.9-0.2-1.2-0.5c-0.3-0.3-0.5-0.7-0.5-1.2C20.1,2.8,20.1,0.4,20.1,0.4z
			"/>
		<g>
			<polygon class="st2" points="24,13.9 3.4,13.9 0.9,13.9 0.9,24.9 3.4,24.9 24,24.9 26.5,24.9 26.5,13.9 			"/>
			<path class="st1" d="M0.9,24.9h25.6v-11H0.9V24.9L0.9,24.9z M27,25.8H0.4c-0.2,0-0.4-0.2-0.4-0.4V13.5C0,13.2,0.2,13,0.4,13H27
				c0.2,0,0.4,0.2,0.4,0.4v11.9C27.4,25.6,27.2,25.8,27,25.8z"/>
		</g>
		<g>
			<path class="st0" d="M5.2,22.9v-6.7h2.2c0.8,0,1.4,0,1.6,0.1c0.4,0.1,0.7,0.3,1,0.7c0.3,0.3,0.4,0.8,0.4,1.3c0,0.4-0.1,0.8-0.2,1
				C10,19.6,9.9,19.8,9.6,20c-0.2,0.2-0.5,0.3-0.7,0.3c-0.3,0.1-0.8,0.1-1.4,0.1h-1v2.5C6.5,22.9,5.2,22.9,5.2,22.9z M6.5,17.3v1.9
				h0.7c0.5,0,0.9,0,1.1-0.1c0.2-0.1,0.3-0.2,0.4-0.3c0.1-0.2,0.2-0.3,0.2-0.5s-0.1-0.4-0.2-0.6c-0.1-0.2-0.3-0.3-0.5-0.3
				s-0.5,0-1,0H6.5V17.3z"/>
			<path class="st0" d="M11.5,16.2H14c0.6,0,1,0,1.3,0.1c0.4,0.1,0.7,0.3,1,0.6c0.3,0.3,0.5,0.7,0.6,1.1s0.2,1,0.2,1.6
				s-0.1,1-0.2,1.4c-0.2,0.5-0.4,0.9-0.7,1.2c-0.2,0.2-0.6,0.4-1,0.5c-0.3,0.1-0.7,0.1-1.2,0.1h-2.6v-6.6H11.5z M12.8,17.3v4.5h1
				c0.4,0,0.7,0,0.8-0.1c0.2-0.1,0.4-0.1,0.5-0.3c0.1-0.1,0.3-0.3,0.4-0.7c0.1-0.3,0.1-0.7,0.1-1.2s0-0.9-0.1-1.2
				c-0.1-0.3-0.2-0.5-0.4-0.7s-0.4-0.3-0.6-0.3c-0.2,0-0.6-0.1-1.1-0.1h-0.6V17.3z"/>
			<path class="st0" d="M18.3,22.9v-6.7h4.6v1.1h-3.3v1.6h2.8V20h-2.8v2.9H18.3z"/>
		</g>
	</g>
</g>
</svg>
