<?xml version="1.0" encoding="utf-8"?>
<!-- Generator: Adobe Illustrator 27.4.0, SVG Export Plug-In . SVG Version: 6.00 Build 0)  -->
<svg version="1.1" xmlns="http://www.w3.org/2000/svg" xmlns:xlink="http://www.w3.org/1999/xlink" x="0px" y="0px"
	 viewBox="0 0 27.4 30" style="enable-background:new 0 0 27.4 30;" xml:space="preserve">
<style type="text/css">
	.st0{fill:#FFFFFF;}
	.st1{fill:#146BC1;}
	.st2{fill-rule:evenodd;clip-rule:evenodd;fill:#146BC1;}
</style>
<g id="圖層_2">
	<polygon class="st0" points="3.3,0.6 3.4,29.5 24.1,29.5 24.1,4.9 19.4,0.5 	"/>
</g>
<g id="圖層_1">
	<g>
		<path class="st1" d="M2.9,13.5c0,0.2,0.2,0.4,0.4,0.4c0.2,0,0.4-0.2,0.4-0.4V0.9h15.7L23.6,5v8.5c0,0.2,0.2,0.4,0.4,0.4
			c0.2,0,0.4-0.2,0.4-0.4V4.8h0c0-0.1,0-0.2-0.1-0.3l0,0L20,0.1C19.9,0.1,19.8,0,19.7,0H3.4C3.1,0,2.9,0.2,2.9,0.4V13.5L2.9,13.5z
			 M24.5,25.4c0-0.2-0.2-0.4-0.4-0.4c-0.2,0-0.4,0.2-0.4,0.4v3.7H3.8v-3.7c0-0.2-0.2-0.4-0.4-0.4c-0.2,0-0.4,0.2-0.4,0.4v4.2
			c0,0.2,0.2,0.4,0.4,0.4H24c0.2,0,0.4-0.2,0.4-0.4V25.4z"/>
		<path class="st1" d="M20.1,0.4c0-0.2-0.2-0.4-0.4-0.4c-0.2,0-0.4,0.2-0.4,0.4v2.2c0,0.7,0.3,1.4,0.8,1.9c0.5,0.5,1.1,0.8,1.9,0.8
			H24c0.2,0,0.4-0.2,0.4-0.4c0-0.2-0.2-0.4-0.4-0.4h-2.2c-0.5,0-0.9-0.2-1.2-0.5c-0.3-0.3-0.5-0.7-0.5-1.2V0.4z"/>
		<g>
			<polygon class="st2" points="24,13.9 3.4,13.9 0.9,13.9 0.9,24.9 3.4,24.9 24,24.9 26.5,24.9 26.5,13.9 			"/>
			<path class="st1" d="M0.9,24.9h25.6v-11H0.9V24.9L0.9,24.9z M27,25.8H0.4c-0.2,0-0.4-0.2-0.4-0.4V13.5C0,13.2,0.2,13,0.4,13H27
				c0.2,0,0.4,0.2,0.4,0.4v11.9C27.4,25.6,27.2,25.8,27,25.8z"/>
		</g>
		<g>
			<path class="st0" d="M4.9,19.6c0-0.7,0.1-1.3,0.3-1.7c0.2-0.3,0.4-0.7,0.6-0.9c0.3-0.3,0.6-0.5,0.9-0.6c0.4-0.2,0.9-0.3,1.5-0.3
				c1,0,1.8,0.3,2.4,0.9c0.6,0.6,0.9,1.5,0.9,2.6c0,1.1-0.3,1.9-0.9,2.6C10,22.7,9.2,23,8.2,23c-1,0-1.8-0.3-2.4-0.9
				C5.2,21.5,4.9,20.7,4.9,19.6z M6.3,19.5c0,0.8,0.2,1.3,0.5,1.7c0.4,0.4,0.8,0.6,1.3,0.6s1-0.2,1.3-0.6c0.3-0.4,0.5-1,0.5-1.8
				c0-0.8-0.2-1.3-0.5-1.7s-0.8-0.6-1.3-0.6c-0.6,0-1,0.2-1.4,0.6C6.5,18.2,6.3,18.8,6.3,19.5z"/>
			<path class="st0" d="M12.5,16.2H15c0.6,0,1,0,1.3,0.1c0.4,0.1,0.7,0.3,1,0.6c0.3,0.3,0.5,0.7,0.6,1.1c0.1,0.4,0.2,1,0.2,1.6
				c0,0.6-0.1,1-0.2,1.4c-0.2,0.5-0.4,0.9-0.7,1.2c-0.2,0.2-0.6,0.4-1,0.5c-0.3,0.1-0.7,0.1-1.2,0.1h-2.6V16.2z M13.9,17.3v4.5h1
				c0.4,0,0.7,0,0.8-0.1c0.2-0.1,0.4-0.1,0.5-0.3c0.1-0.1,0.3-0.3,0.4-0.7c0.1-0.3,0.1-0.7,0.1-1.2c0-0.5,0-0.9-0.1-1.2
				c-0.1-0.3-0.2-0.5-0.4-0.7c-0.2-0.2-0.4-0.3-0.6-0.3c-0.2,0-0.6-0.1-1.1-0.1H13.9z"/>
			<path class="st0" d="M20.8,22.9v-5.6h-2v-1.1h5.4v1.1h-2v5.6H20.8z"/>
		</g>
	</g>
</g>
</svg>
