<?xml version="1.0" encoding="utf-8"?>
<!-- Generator: Adobe Illustrator 27.4.0, SVG Export Plug-In . SVG Version: 6.00 Build 0)  -->
<svg version="1.1" id="圖層_2" xmlns="http://www.w3.org/2000/svg" xmlns:xlink="http://www.w3.org/1999/xlink" x="0px" y="0px"
	 viewBox="0 0 27.4 30" style="enable-background:new 0 0 27.4 30;" xml:space="preserve">
<style type="text/css">
	.st0{fill:#FFFFFF;}
	.st1{fill:#686868;}
</style>
<polygon class="st0" points="3.3,0.6 3.4,29.5 24.1,29.5 24.1,4.9 19.4,0.5 "/>
<g>
	<path class="st1" d="M2.9,26c0,0.2,0.2,0.4,0.4,0.4c0.2,0,0.4-0.2,0.4-0.4V0.9h15.7L23.6,5v21c0,0.2,0.2,0.4,0.4,0.4
		c0.2,0,0.4-0.2,0.4-0.4V4.8h0c0-0.1,0-0.2-0.1-0.3l0,0L20,0.1C19.9,0.1,19.8,0,19.7,0H3.4C3.1,0,2.9,0.2,2.9,0.4V26L2.9,26z
		 M24.5,25.4c0-0.2-0.2-0.4-0.4-0.4c-0.2,0-0.4,0.2-0.4,0.4v3.7H3.8v-3.7c0-0.2-0.2-0.4-0.4-0.4c-0.2,0-0.4,0.2-0.4,0.4v4.2
		c0,0.2,0.2,0.4,0.4,0.4H24c0.2,0,0.4-0.2,0.4-0.4V25.4z"/>
	<path class="st1" d="M6.6,6C6.3,6,6.1,6.2,6.1,6.5C6.1,6.8,6.3,7,6.6,7h10.2c0.3,0,0.5-0.2,0.5-0.5C17.2,6.2,17,6,16.7,6H6.6z"/>
	<path class="st1" d="M6.6,9.6c-0.3,0-0.5,0.2-0.5,0.5c0,0.3,0.2,0.5,0.5,0.5h14.3c0.3,0,0.5-0.2,0.5-0.5c0-0.3-0.2-0.5-0.5-0.5H6.6
		z"/>
	<path class="st1" d="M6.6,13.2c-0.3,0-0.5,0.2-0.5,0.5c0,0.3,0.2,0.5,0.5,0.5h14.3c0.3,0,0.5-0.2,0.5-0.5c0-0.3-0.2-0.5-0.5-0.5
		H6.6z"/>
	<path class="st1" d="M6.6,16.8c-0.3,0-0.5,0.2-0.5,0.5c0,0.3,0.2,0.5,0.5,0.5h14.3c0.3,0,0.5-0.2,0.5-0.5c0-0.3-0.2-0.5-0.5-0.5
		H6.6z"/>
	<path class="st1" d="M6.6,20.4c-0.3,0-0.5,0.2-0.5,0.5c0,0.3,0.2,0.5,0.5,0.5h14.3c0.3,0,0.5-0.2,0.5-0.5c0-0.3-0.2-0.5-0.5-0.5
		H6.6z"/>
	<path class="st1" d="M6.6,24c-0.3,0-0.5,0.2-0.5,0.5c0,0.3,0.2,0.5,0.5,0.5h14.3c0.3,0,0.5-0.2,0.5-0.5c0-0.3-0.2-0.5-0.5-0.5H6.6z
		"/>
</g>
</svg>
